<?xml version="1.0" encoding="UTF-8" standalone="no"?>
<!-- Created with Inkscape (http://www.inkscape.org/) -->

<svg
   version="1.1"
   id="svg212"
   width="462"
   height="246"
   viewBox="0 0 462 246"
   sodipodi:docname="G20_India_Logo.svg"
   inkscape:version="1.2.2 (732a01da63, 2022-12-09)"
   xmlns:inkscape="http://www.inkscape.org/namespaces/inkscape"
   xmlns:sodipodi="http://sodipodi.sourceforge.net/DTD/sodipodi-0.dtd"
   xmlns="http://www.w3.org/2000/svg"
   xmlns:svg="http://www.w3.org/2000/svg">
  <defs
     id="defs216" />
  <sodipodi:namedview
     id="namedview214"
     pagecolor="#ffffff"
     bordercolor="#000000"
     borderopacity="0.25"
     inkscape:showpageshadow="2"
     inkscape:pageopacity="0.0"
     inkscape:pagecheckerboard="0"
     inkscape:deskcolor="#d1d1d1"
     showgrid="false"
     inkscape:zoom="2.0151515"
     inkscape:cx="231"
     inkscape:cy="122.81955"
     inkscape:window-width="1366"
     inkscape:window-height="706"
     inkscape:window-x="-8"
     inkscape:window-y="-8"
     inkscape:window-maximized="1"
     inkscape:current-layer="g218" />
  <g
     inkscape:groupmode="layer"
     inkscape:label="Image"
     id="g218">
    <g
       id="g254"
       transform="translate(5.9548867,0.99248121)">
      <path
         style="fill:#5cacd8"
         d="m 218.26375,245.28242 c 1.52006,-0.22986 3.77006,-0.22371 5,0.0136 1.22994,0.23736 -0.0137,0.42542 -2.76375,0.41792 -2.75,-0.008 -3.75631,-0.20172 -2.23625,-0.43157 z m -38.28381,-16.80659 c -0.69572,-0.83829 -1.07128,-1.71782 -0.83459,-1.95452 0.2367,-0.23669 0.97964,0.44918 1.65098,1.52417 1.45181,2.32472 0.96763,2.57996 -0.81639,0.43035 z M 142.87244,224.25 c -1.24387,-1.58606 -1.2085,-1.62143 0.37756,-0.37756 0.9625,0.75485 1.75,1.54235 1.75,1.75 0,0.82304 -0.82119,0.29331 -2.12756,-1.37244 z M 269.15789,224 c 0,-1.375 0.22698,-1.9375 0.50439,-1.25 0.27741,0.6875 0.27741,1.8125 0,2.5 -0.27741,0.6875 -0.50439,0.125 -0.50439,-1.25 z m -106.88706,0.39583 c 0.33229,-0.33229 1.19479,-0.36781 1.91667,-0.0789 0.79773,0.31922 0.56078,0.55618 -0.60417,0.60416 -1.05416,0.0434 -1.64479,-0.19293 -1.3125,-0.52522 z M 184.232,222 c 0,-1.925 0.2058,-2.7125 0.45733,-1.75 0.25152,0.9625 0.25152,2.5375 0,3.5 -0.25153,0.9625 -0.45733,0.175 -0.45733,-1.75 z m 44.018,2.31067 c 0.9625,-0.25152 2.5375,-0.25152 3.5,0 0.9625,0.25153 0.175,0.45733 -1.75,0.45733 -1.925,0 -2.7125,-0.2058 -1.75,-0.45733 z M 126.87244,222.25 c -1.21431,-1.54837 -1.18902,-1.60698 0.21957,-0.50868 0.8756,0.68273 1.96025,0.90773 2.41032,0.5 0.45008,-0.40772 0.49462,-0.17882 0.099,0.50868 -0.92979,1.61569 -1.09309,1.58577 -2.72887,-0.5 z M 210,220.94098 c 0,-0.58246 -0.5625,-0.73786 -1.25,-0.34534 -0.6875,0.39253 0.0717,-0.70591 1.68709,-2.44098 1.6154,-1.73506 3.15634,-3.15466 3.42432,-3.15466 0.26797,0 -0.55863,1.11326 -1.83689,2.4739 -2.42082,2.57684 -2.2775,2.79984 2.47548,3.85155 1.22296,0.27061 0.73731,0.48762 -1.25,0.55855 -1.7875,0.0638 -3.25,-0.36056 -3.25,-0.94302 z M 243,220.5 c 0.68469,-0.825 1.46989,-1.5 1.74489,-1.5 0.275,0 -0.0602,0.675 -0.74489,1.5 -0.68469,0.825 -1.46989,1.5 -1.74489,1.5 -0.275,0 0.0602,-0.675 0.74489,-1.5 z m 3.25,0.81067 c 0.9625,-0.25152 2.5375,-0.25152 3.5,0 0.9625,0.25153 0.175,0.45733 -1.75,0.45733 -1.925,0 -2.7125,-0.2058 -1.75,-0.45733 z M 252.63837,220.5 c -0.31658,-0.825 -0.13972,-1.5 0.39301,-1.5 0.53274,0 0.96862,0.675 0.96862,1.5 0,0.825 -0.17686,1.5 -0.39301,1.5 -0.21616,0 -0.65203,-0.675 -0.96862,-1.5 z M 217.5,220 c -0.33992,-0.55 -0.14148,-1 0.44098,-1 0.58246,0 1.05902,0.45 1.05902,1 0,1.28138 -0.70806,1.28138 -1.5,0 z m 42.77083,-0.60417 c 0.33229,-0.33229 1.19479,-0.36781 1.91667,-0.0789 0.79773,0.31922 0.56078,0.55618 -0.60417,0.60416 -1.05416,0.0434 -1.64479,-0.19293 -1.3125,-0.52522 z M 293.33621,213 c 0,-4.125 0.17651,-5.8125 0.39226,-3.75 0.21574,2.0625 0.21574,5.4375 0,7.5 -0.21575,2.0625 -0.39226,0.375 -0.39226,-3.75 z m 19.86249,-0.05 c -0.10929,-4.1525 -0.64709,-8.09161 -1.19513,-8.75357 -0.54803,-0.66197 -0.3018,-0.60216 0.54718,0.1329 1.19889,1.038 1.46579,2.99286 1.19513,8.75357 l -0.34849,7.4171 z m -75.00375,2.55 c -0.0204,-1.65 0.18706,-2.44606 0.46099,-1.76903 0.27392,0.67703 0.29059,2.02703 0.0371,3 C 238.4395,217.70394 238.21538,217.15 238.195,215.5 Z M 262,216.5 c 0.68469,-0.825 1.46989,-1.5 1.74489,-1.5 0.275,0 -0.0602,0.675 -0.74489,1.5 -0.68469,0.825 -1.46989,1.5 -1.74489,1.5 -0.275,0 0.0602,-0.675 0.74489,-1.5 z m -114.89961,-1.79548 c -1.26492,-2.10631 -1.24361,-2.12762 0.47833,-0.47833 0.99123,0.94941 1.58698,1.94144 1.3239,2.20452 -0.26308,0.26308 -1.07408,-0.5137 -1.80223,-1.72619 z M 126,214.5 c 0.68469,-0.825 1.46989,-1.5 1.74489,-1.5 0.275,0 -0.0602,0.675 -0.74489,1.5 -0.68469,0.825 -1.46989,1.5 -1.74489,1.5 -0.275,0 0.0602,-0.675 0.74489,-1.5 z M 329.232,213 c 0,-1.925 0.2058,-2.7125 0.45733,-1.75 0.25152,0.9625 0.25152,2.5375 0,3.5 -0.25153,0.9625 -0.45733,0.175 -0.45733,-1.75 z m 16.3962,2.20744 c -0.2694,-0.43591 0.79946,-0.89081 2.37525,-1.01088 1.57579,-0.12007 3.14621,0.23658 3.48983,0.79256 0.36795,0.59537 -0.60837,1.01088 -2.37525,1.01088 -1.65,0 -3.22042,-0.35665 -3.48983,-0.79256 z m -184.48988,-2.54077 c -0.8376,-1.00925 -0.74583,-1.33334 0.37756,-1.33334 0.81626,0 1.48412,0.6 1.48412,1.33334 0,1.68353 -0.46447,1.68353 -1.86168,0 z M 249.15789,212 c 0,-1.375 0.22698,-1.9375 0.50439,-1.25 0.27741,0.6875 0.27741,1.8125 0,2.5 -0.27741,0.6875 -0.50439,0.125 -0.50439,-1.25 z M 129,212.55902 c 0,-0.24254 0.45,-0.7191 1,-1.05902 0.55,-0.33992 1,-0.14148 1,0.44098 0,0.58246 -0.45,1.05902 -1,1.05902 -0.55,0 -1,-0.19844 -1,-0.44098 z M 243.87244,211.25 c -1.24387,-1.58606 -1.2085,-1.62143 0.37756,-0.37756 1.66575,1.30637 2.19548,2.12756 1.37244,2.12756 -0.20765,0 -0.99515,-0.7875 -1.75,-1.75 z M 346.5,212 c -0.33992,-0.55 -0.14148,-1 0.44098,-1 0.58246,0 1.05902,0.45 1.05902,1 0,1.28138 -0.70806,1.28138 -1.5,0 z m -207.75,-0.66228 c 0.6875,-0.27741 1.8125,-0.27741 2.5,0 0.6875,0.27741 0.125,0.50439 -1.25,0.50439 -1.375,0 -1.9375,-0.22698 -1.25,-0.50439 z m 208.85301,-2.17105 c -0.28327,-0.45834 0.12038,-0.83334 0.89699,-0.83334 0.77661,0 1.18026,0.375 0.89699,0.83334 -0.65154,1.05421 -1.14244,1.05421 -1.79398,0 z M 244.5,208 c -0.33992,-0.55 -0.14148,-1 0.44098,-1 0.58246,0 1.05902,0.45 1.05902,1 0,1.28138 -0.70806,1.28138 -1.5,0 z m 81.90499,-2.25 -1.90499,-2.25 2.25,1.90499 c 2.11444,1.79022 2.70524,2.59501 1.90499,2.59501 -0.18976,0 -1.20226,-1.0125 -2.25,-2.25 z m -193.48068,-1.38718 c -1.33337,-1.45044 -1.78782,-2.43828 -1.00989,-2.19519 1.31776,0.41178 4.86885,4.83237 3.88187,4.83237 -0.24622,0 -1.5386,-1.18673 -2.87198,-2.63718 z m 204.52578,0.75283 c 0.65759,-1.09151 0.18054,-1.28844 -2.25523,-0.93094 -1.69908,0.24937 -2.85414,0.073 -2.5668,-0.39191 0.41501,-0.6715 7.37194,-0.87049 7.37194,-0.21086 0,0.0952 -0.76138,0.79077 -1.69196,1.54562 -1.43668,1.16537 -1.56613,1.16358 -0.85795,-0.0119 z M 106.40499,202.75 104.5,200.5 l 2.17276,1.83509 c 1.76179,1.48799 3.51181,1.7717 9.25225,1.5 3.89372,-0.1843 7.07848,0.002 7.07724,0.41491 -0.001,0.4125 -3.30751,0.75 -7.34726,0.75 -6.38594,0 -7.59376,-0.29379 -9.25,-2.25 z M 280,203.99084 c 0,-0.89106 5.06008,-1.0566 6.56437,-0.21476 0.82347,0.46084 -0.2171,0.76937 -2.59479,0.76937 -2.18327,0 -3.96958,-0.24957 -3.96958,-0.55461 z M 290,204 c 0,-0.55 1.2375,-0.96837 2.75,-0.92971 2.43684,0.0623 2.52225,0.16815 0.75,0.92971 -2.73138,1.17371 -3.5,1.17371 -3.5,0 z m 13.4766,-0.0379 c -0.18283,-0.29582 0.73784,-0.62643 2.04593,-0.7347 1.3081,-0.10826 2.58268,0.13378 2.83242,0.53786 0.24974,0.40409 -0.67093,0.7347 -2.04593,0.7347 -1.375,0 -2.64959,-0.24204 -2.83242,-0.53786 z m 13.60673,0.67854 c 0.22917,-0.19763 1.76667,-0.6613 3.41667,-1.03038 2.19092,-0.49007 2.59546,-0.3973 1.5,0.34401 -1.35037,0.91381 -5.92015,1.55175 -4.91667,0.68637 z m 71.1875,-28.24485 c 0.33229,-0.33229 1.19479,-0.36781 1.91667,-0.0789 0.79773,0.31922 0.56078,0.55618 -0.60417,0.60416 -1.05416,0.0434 -1.64479,-0.19293 -1.3125,-0.52522 z m -44,-7 c 0.33229,-0.33229 1.19479,-0.36781 1.91667,-0.0789 0.79773,0.31922 0.56078,0.55618 -0.60417,0.60416 -1.05416,0.0434 -1.64479,-0.19293 -1.3125,-0.52522 z m -274.999997,-3 c 0.332292,-0.33229 1.194792,-0.36781 1.916667,-0.0789 0.797733,0.31922 0.560776,0.55618 -0.604167,0.60416 -1.054166,0.0434 -1.644791,-0.19293 -1.3125,-0.52522 z m 18,0 c 0.332292,-0.33229 1.194792,-0.36781 1.916667,-0.0789 0.797733,0.31922 0.560776,0.55618 -0.604167,0.60416 -1.054166,0.0434 -1.644791,-0.19293 -1.3125,-0.52522 z M 154,157.5 c 0.68469,-0.825 1.46989,-1.5 1.74489,-1.5 0.275,0 -0.0602,0.675 -0.74489,1.5 -0.68469,0.825 -1.46989,1.5 -1.74489,1.5 -0.275,0 0.0602,-0.675 0.74489,-1.5 z m 151.63837,-46 c 0.73703,-1.92067 1.36163,-1.92067 1.36163,0 0,0.825 -0.43588,1.5 -0.96862,1.5 -0.53273,0 -0.70959,-0.675 -0.39301,-1.5 z m -17.13129,-0.48855 c -0.35034,-0.56686 0.0511,-0.7345 0.94098,-0.39301 1.73242,0.66479 2.04939,1.38156 0.61096,1.38156 -0.51754,0 -1.21592,-0.44485 -1.55194,-0.98855 z m 10.09298,-2.68532 c 0.60503,-0.45437 1.38459,-1.50113 1.73236,-2.32613 0.44428,-1.05395 0.56321,-0.92991 0.39995,0.41713 -0.12781,1.05443 -0.90737,2.10119 -1.73237,2.32613 -0.96478,0.26307 -1.10748,0.11423 -0.39994,-0.41713 z M 281,103.05902 c 0,-0.51754 0.44485,-1.21592 0.98855,-1.55194 0.56686,-0.35034 0.7345,0.0511 0.39301,0.94098 C 281.71677,104.18048 281,104.49745 281,103.05902 Z m 119.66667,-0.72569 c -0.36667,-0.36666 -0.65978,-1.15416 -0.65136,-1.75 0.0102,-0.720139 0.26162,-0.698062 0.75,0.0658 0.40408,0.63206 1.85969,1.35827 3.23469,1.61382 l 2.5,0.46464 -2.58333,0.13618 c -1.42084,0.0749 -2.88334,-0.16382 -3.25,-0.53049 z m 11.60416,-0.9375 c 0.33229,-0.33229 1.19479,-0.36781 1.91667,-0.0789 0.79773,0.31922 0.56078,0.55618 -0.60417,0.60416 -1.05416,0.0434 -1.64479,-0.19292 -1.3125,-0.52522 z m -7,-1 c 0.33229,-0.33229 1.19479,-0.36781 1.91667,-0.0789 0.79773,0.31922 0.56078,0.55618 -0.60417,0.60416 -1.05416,0.0434 -1.64479,-0.19292 -1.3125,-0.52522 z M 417,100.57037 c 0,-0.275 0.9,-0.981668 2,-1.57037 1.1,-0.588702 2,-0.845368 2,-0.570368 0,0.275 -0.9,0.981666 -2,1.570368 -1.1,0.5887 -2,0.84537 -2,0.57037 z m 5.4309,-0.682173 c -0.72254,-1.169098 1.6277,-3.201773 2.54014,-2.196919 0.29093,0.320392 -0.0363,0.784359 -0.72727,1.031037 -0.69093,0.246678 -1.00187,0.860071 -0.69098,1.363095 0.31088,0.50302 0.34024,0.91459 0.0652,0.91459 -0.275,0 -0.80921,-0.50031 -1.18713,-1.111803 z M 280,99 c 0,-1.281385 0.70806,-1.281385 1.5,0 0.33992,0.55 0.14148,1 -0.44098,1 C 280.47656,100 280,99.55 280,99 Z m 119.15789,-3 c 0,-1.375 0.22698,-1.9375 0.50439,-1.25 0.27741,0.6875 0.27741,1.8125 0,2.5 -0.27741,0.6875 -0.50439,0.125 -0.50439,-1.25 z m 7.4064,-2.706872 c -0.54268,-1.425198 -0.42782,-1.540062 0.5598,-0.559795 0.68342,0.678334 0.99067,1.485241 0.68278,1.793128 -0.30789,0.307888 -0.86705,-0.247112 -1.24258,-1.233333 z M 421,93.5 c 0,-1.92067 0.6246,-1.92067 1.36163,0 0.31658,0.825 0.13972,1.5 -0.39301,1.5 C 421.43588,95 421,94.325 421,93.5 Z m 7.07895,-0.916667 c -0.0434,-1.054166 0.19293,-1.644791 0.52522,-1.3125 0.33229,0.332292 0.36781,1.194792 0.0789,1.916667 -0.31922,0.797733 -0.55618,0.560776 -0.60416,-0.604167 z M 432.15789,90 c 0,-1.375 0.22698,-1.9375 0.50439,-1.25 0.27741,0.6875 0.27741,1.8125 0,2.5 -0.27741,0.6875 -0.50439,0.125 -0.50439,-1.25 z M 385.87244,89.25 C 384.62857,87.663944 384.66394,87.628574 386.25,88.872445 387.91575,90.178814 388.44548,91 387.62244,91 c -0.20765,0 -0.99515,-0.7875 -1.75,-1.75 z m 19.39519,0.332866 c 0.12781,-1.054423 0.90737,-2.101182 1.73237,-2.326131 0.96478,-0.26306 1.10748,-0.11422 0.39994,0.417134 -0.60503,0.454372 -1.38459,1.501131 -1.73236,2.326131 -0.44428,1.053951 -0.56321,0.92991 -0.39995,-0.417134 z M 391.5,89 c -0.33992,-0.55 -0.14148,-1 0.44098,-1 0.58246,0 1.05902,0.45 1.05902,1 0,1.281385 -0.70806,1.281385 -1.5,0 z m 5.5,0 c 0,-1.281385 0.70806,-1.281385 1.5,0 0.33992,0.55 0.14148,1 -0.44098,1 C 397.47656,90 397,89.55 397,89 Z m 27.70233,-1.333333 c -0.28141,-0.733334 0.0775,-1.333334 0.79767,-1.333334 0.72013,0 1.07908,0.6 0.79767,1.333334 -0.64297,1.675559 -0.95237,1.675559 -1.59534,0 z M 274.15789,86 c 0,-1.375 0.22698,-1.9375 0.50439,-1.25 0.27741,0.6875 0.27741,1.8125 0,2.5 -0.27741,0.6875 -0.50439,0.125 -0.50439,-1.25 z m 144.87274,1.5 c 0,-0.55 0.43621,-1.675 0.96937,-2.5 0.53316,-0.825 0.96937,-1.05 0.96937,-0.5 0,0.55 -0.43621,1.675 -0.96937,2.5 -0.53316,0.825 -0.96937,1.05 -0.96937,0.5 z M 356.6875,86.354167 C 356.30937,85.976042 356,84.526667 356,83.133333 c 0,-1.97037 -0.26667,-2.266666 -1.2,-1.333333 -1.92893,1.928928 -3.52738,1.398482 -4.67078,-1.55 C 346.18111,70.069065 345,66.202571 345,63.458986 c 0,-2.569516 -0.38682,-3.103825 -2.19966,-3.038387 -1.32693,0.0479 -2.6516,-0.810557 -3.33878,-2.163713 -2.31223,-4.553138 -4.46902,-6.003144 -9.67308,-6.503188 -3.38028,-0.324802 -5.5776,-1.112392 -6.45635,-2.314166 C 322.04868,47.684311 322,47.686316 322,49.494419 c 0,1.032173 0.95352,2.891658 2.11894,4.13219 l 2.11895,2.255511 -2.20294,2.80894 c -2.42729,3.09502 -5.72005,5.240083 -8.03495,5.234363 -0.825,-0.002 -0.0607,-0.629621 1.69848,-1.394628 3.3194,-1.443506 3.48125,-2.395301 1.83309,-10.779799 -0.1891,-0.961952 0.0606,-1.998931 0.55483,-2.304397 0.49426,-0.305465 -0.13254,-1.543414 -1.39289,-2.750996 -1.26034,-1.207581 -1.47922,-1.560862 -0.48639,-0.785067 2.12348,1.659288 1.74087,2.035835 5.1335,-5.052043 3.15142,-6.583957 9.86183,-13.1578 16.48371,-16.148255 6.43293,-2.905126 17.80986,-2.867793 24.39537,0.08005 6.66471,2.983297 13.58081,9.733724 16.59912,16.201517 2.06806,4.431526 2.56007,6.974191 2.5171,13.008193 -0.0308,4.327013 -0.71796,9.19226 -1.62421,11.5 -1.12214,2.85754 -1.59091,3.374994 -1.64125,1.811718 -0.0388,-1.203555 -1.30796,-3.516856 -2.82046,-5.140668 -2.25629,-2.422338 -3.33348,-2.861873 -6,-2.448219 -1.86156,0.288781 -3.25,1.096497 -3.25,1.890668 0,0.762576 -0.3375,1.39642 -0.75,1.408543 -0.4125,0.01212 -2.8875,1.975005 -5.5,4.36196 -4.15756,3.798629 -4.75,4.840757 -4.75,8.355513 0,2.405094 0.62095,4.530935 1.54826,5.300535 0.85154,0.706716 1.41404,2.189069 1.25,3.294117 -0.31432,2.117397 -1.95074,3.180019 -3.11076,2.02 z m -1.72627,-30.281725 c 1.19516,-2.233182 0.50644,-4.679004 -1.53855,-5.463738 -2.09074,-0.802292 -4.25998,0.303312 -4.96723,2.531665 -1.31358,4.138721 4.46597,6.743491 6.50578,2.932073 z M 428.98469,83.75 C 428.9723,81.930562 428.78387,81.787041 428,83 c -0.53316,0.825 -0.97627,1.0275 -0.98469,0.45 -0.008,-0.5775 0.40006,-1.4775 0.90774,-2 0.50768,-0.5225 1.1074,-2.3 1.33271,-3.95 0.22531,-1.65 0.4384,-0.4125 0.47352,2.75 0.0351,3.1625 -0.11459,5.75 -0.3327,5.75 -0.21812,0 -0.40347,-1.0125 -0.41189,-2.25 z M 305.5,82 c 0.99549,-1.1 2.03498,-2 2.30998,-2 0.275,0 -0.31449,0.9 -1.30998,2 -0.99549,1.1 -2.03498,2 -2.30998,2 -0.275,0 0.31449,-0.9 1.30998,-2 z m 108,-1 c 0.99549,-1.1 2.03498,-2 2.30998,-2 0.275,0 -0.31449,0.9 -1.30998,2 -0.99549,1.1 -2.03498,2 -2.30998,2 -0.275,0 0.31449,-0.9 1.30998,-2 z m 5.92857,-2.073419 C 419.42857,77.866962 419.78214,77 420.21429,77 420.64643,77 421,77.648442 421,78.440983 c 0,0.792541 -0.35357,1.659502 -0.78571,1.926581 -0.43215,0.267079 -0.78572,-0.381363 -0.78572,-1.440983 z M 386.8245,73.674177 c -0.37205,-1.824821 -0.23268,-2.482356 0.39346,-1.856219 0.53328,0.533281 0.79255,1.804901 0.57615,2.825822 -0.29142,1.374818 -0.54288,1.123356 -0.96961,-0.969603 z M 274.15789,73 c 0,-1.375 0.22698,-1.9375 0.50439,-1.25 0.27741,0.6875 0.27741,1.8125 0,2.5 -0.27741,0.6875 -0.50439,0.125 -0.50439,-1.25 z M 311,72.057498 c 0,-0.518376 -1.9125,-1.114758 -4.25,-1.325293 l -4.25,-0.382791 4.75,-0.174707 C 310.8832,70.041076 312,70.352673 312,71.5 c 0,0.825 -0.225,1.5 -0.5,1.5 -0.275,0 -0.5,-0.424126 -0.5,-0.942502 z m 115.27103,-2.149367 c 0.97407,-0.567079 1.52923,-1.4223 1.23369,-1.900493 -0.29554,-0.478193 -0.08,-1.152093 0.47897,-1.497557 1.42464,-0.880474 1.27313,1.833103 -0.18369,3.289919 -0.66,0.66 -1.6725,1.186316 -2.25,1.169591 -0.5775,-0.01672 -0.25304,-0.494382 0.72103,-1.06146 z M 432.15789,69 c 0,-1.375 0.22698,-1.9375 0.50439,-1.25 0.27741,0.6875 0.27741,1.8125 0,2.5 -0.27741,0.6875 -0.50439,0.125 -0.50439,-1.25 z m -9.80865,-2.389594 c -1.43287,-1.635527 -0.4809,-3.299983 2.15076,-3.760456 1.1,-0.192473 2.33061,-0.79995 2.73469,-1.34995 0.41488,-0.564703 0.74135,-0.23823 0.75,0.75 0.0106,1.216225 -0.76778,1.75 -2.55208,1.75 -2.11231,0 -2.45487,0.354504 -1.93261,2 0.73252,2.30796 0.46211,2.451395 -1.15076,0.610406 z M 306.27083,66.395833 c 0.33229,-0.332291 1.19479,-0.367818 1.91667,-0.07895 0.79773,0.319226 0.56078,0.556183 -0.60417,0.604167 -1.05416,0.04342 -1.64479,-0.192928 -1.3125,-0.52522 z M 310,65.616631 c 0,-0.210852 0.90062,-0.618886 2.00138,-0.906741 1.10076,-0.287855 1.7492,-0.115339 1.44098,0.383369 C 312.90411,65.964167 310,66.405705 310,65.616631 Z M 399.40499,62.75 397.5,60.5 l 2.25,1.904988 C 401.86444,64.195206 402.45524,65 401.65499,65 c -0.18976,0 -1.20226,-1.0125 -2.25,-2.25 z m 5.36168,-3.99862 c 0.53941,-2.09323 0.44505,-2.146011 -1.34326,-0.75138 -1.77625,1.385233 -1.8191,1.366948 -0.5601,-0.23899 0.74982,-0.956444 1.76232,-1.492386 2.25,-1.190983 1.15414,0.713303 1.14151,3.154454 -0.0201,3.872336 -0.49871,0.308218 -0.64567,-0.452724 -0.32659,-1.690983 z M 297.07895,57.583333 c -0.0434,-1.054166 0.19293,-1.644791 0.52522,-1.3125 0.33229,0.332292 0.36781,1.194792 0.0789,1.916667 -0.31922,0.797733 -0.55618,0.560776 -0.60416,-0.604167 z m 122.19188,-2.1875 c 0.33229,-0.332291 1.19479,-0.367818 1.91667,-0.07895 0.79773,0.319226 0.56078,0.556183 -0.60417,0.604167 -1.05416,0.04342 -1.64479,-0.192928 -1.3125,-0.52522 z M 296.15789,52 c 0,-1.375 0.22698,-1.9375 0.50439,-1.25 0.27741,0.6875 0.27741,1.8125 0,2.5 -0.27741,0.6875 -0.50439,0.125 -0.50439,-1.25 z m 120.24662,-3.154508 c -0.47049,-0.76127 -0.2709,-0.880953 0.58597,-0.351376 0.97952,0.605378 1.17483,0.150962 0.79318,-1.845491 C 417.50519,45.191881 417.66494,44 418.13867,44 418.6124,44 419,45.35 419,47 c 0,3.038845 -1.29075,3.956614 -2.59549,1.845492 z M 314.5,48 c -0.33992,-0.55 -0.14148,-1 0.44098,-1 0.58246,0 1.05902,0.45 1.05902,1 0,1.281385 -0.70806,1.281385 -1.5,0 z m -18.34211,-6 c 0,-1.375 0.22698,-1.9375 0.50439,-1.25 0.27741,0.6875 0.27741,1.8125 0,2.5 -0.27741,0.6875 -0.50439,0.125 -0.50439,-1.25 z m 18.05268,-0.600859 C 313.50139,40.629613 313.36233,40 313.90156,40 c 1.03844,0 2.54172,1.902213 1.94858,2.465672 -0.19258,0.182935 -0.93038,-0.297004 -1.63957,-1.066531 z M 414.87244,29.25 c -1.24387,-1.586056 -1.2085,-1.621426 0.37756,-0.377555 0.9625,0.754844 1.75,1.542344 1.75,1.75 0,0.823034 -0.82119,0.293303 -2.12756,-1.372445 z M 298,27.5 c 0.68469,-0.825 1.46989,-1.5 1.74489,-1.5 0.275,0 -0.0602,0.675 -0.74489,1.5 -0.68469,0.825 -1.46989,1.5 -1.74489,1.5 -0.275,0 0.0602,-0.675 0.74489,-1.5 z m -1,-4 c 2.42903,-2.475 4.64142,-4.5 4.91642,-4.5 0.275,0 -1.48739,2.025 -3.91642,4.5 -2.42903,2.475 -4.64142,4.5 -4.91642,4.5 -0.275,0 1.48739,-2.025 3.91642,-4.5 z m 4.36249,1.412476 c 0.41936,-2.056757 2.63906,-2.264835 2.6222,-0.245809 -0.0118,1.416561 -0.21165,1.523448 -0.87895,0.47018 -0.65188,-1.028911 -1.00366,-1.065696 -1.4347,-0.150024 -0.41165,0.874479 -0.49778,0.853725 -0.30855,-0.07435 z M 372.27083,2.3958333 c 0.33229,-0.3322916 1.19479,-0.3678179 1.91667,-0.078947 0.79773,0.3192263 0.56078,0.5561827 -0.60417,0.6041666 -1.05416,0.043421 -1.64479,-0.1929276 -1.3125,-0.5252196 z M 343.75,0.3377193 c 0.6875,-0.27741228 1.8125,-0.27741228 2.5,0 0.6875,0.27741228 0.125,0.50438596 -1.25,0.50438596 -1.375,0 -1.9375,-0.22697368 -1.25,-0.50438596 z m 17,0 c 0.6875,-0.27741228 1.8125,-0.27741228 2.5,0 0.6875,0.27741228 0.125,0.50438596 -1.25,0.50438596 -1.375,0 -1.9375,-0.22697368 -1.25,-0.50438596 z"
         id="path268" />
      <path
         style="fill:#ed8c2b"
         d="m 326.60503,120.83006 c 0.47587,-0.76998 0.19192,-0.96612 -0.83062,-0.57374 -0.85452,0.32792 -5.03417,-0.5645 -9.2881,-1.98313 l -7.73443,-2.57935 0.65745,-7.59692 c 1.04377,-12.060989 1.61204,-14.324594 3.47394,-13.837698 0.89615,0.234351 5.81949,3.01799 10.94074,6.185868 7.24929,4.48423 9.16028,6.12464 8.62917,7.40734 -0.3752,0.90616 -1.64316,4.45451 -2.81768,7.88521 -1.17453,3.4307 -2.49956,6.2432 -2.94452,6.25 -0.44496,0.007 -0.48364,-0.51411 -0.086,-1.15758 z m 100.47654,0.44599 c -0.0597,-0.89525 -4.17718,-1.29809 -15.33157,-1.5 L 396.5,119.5 l 13,-3.19825 c 7.15,-1.75904 14.96368,-3.51224 17.36372,-3.896 4.26009,-0.68117 4.34622,-0.64083 3.62638,1.69826 -1.27209,4.13358 -3.32337,8.44977 -3.40853,7.17204 z m -149.46044,-5.15377 -1.62004,-4.37772 4.24946,0.65759 c 2.3372,0.36167 10.09945,2.10665 17.24945,3.87772 14.5414,3.60194 14.93205,3.39931 -7.62941,3.95726 L 279.24118,120.5 Z m 33.6497,4.27355 c 0.33229,-0.33229 1.19479,-0.36781 1.91667,-0.0789 0.79773,0.31922 0.56078,0.55618 -0.60417,0.60416 -1.05416,0.0434 -1.64479,-0.19292 -1.3125,-0.52522 z M 333.01571,120 c 0.0579,-1.63415 10.00902,-18.69907 14.71746,-25.238527 4.49542,-6.243595 5.84728,-7.524633 6.96324,-6.598468 C 357.9771,90.885741 374,116.84058 374,119.43212 c 0,0.26903 -9.22545,0.61936 -20.501,0.77851 C 342.22345,120.36978 333.00597,120.275 333.01571,120 Z M 381,120.34572 c -0.825,-0.22911 -2.66094,-3.49311 -4.07988,-7.25333 l -2.57987,-6.83676 8.07987,-5.0212 c 9.959,-6.188965 12.59782,-7.549827 13.29255,-6.855092 1.01302,1.013018 2.20009,9.101762 2.24378,15.289132 l 0.0435,6.16847 -6.75,2.22785 c -8.43732,2.78476 -8.43643,2.78456 -10.25,2.28093 z M 204.44959,99.5 c 21.27535,-24.543558 26.48587,-32.708799 26.52845,-41.571861 0.0687,-14.291701 -11.68678,-26.803521 -26.87299,-28.602103 -10.13388,-1.200209 -22.58254,5.328059 -27.89398,14.628025 l -2.83906,4.971015 -6.78706,-6.839465 c -7.8561,-7.916766 -7.86389,-7.738341 0.73474,-16.83012 9.11373,-9.63643 20.33682,-14.316973 34.38777,-14.341288 9.72839,-0.01684 14.70706,1.169274 22.78155,5.427435 11.38648,6.004772 21.55184,19.180186 24.4257,31.658362 2.50887,10.8934 0.13969,22.666236 -6.92617,34.41736 C 238.77318,87.764764 218.45069,113 217.35966,113 c -0.26273,0 -0.19958,-0.45 0.14034,-1 0.39804,-0.64404 -3.38804,-1 -10.63626,-1 -10.89607,0 -11.34814,0.0875 -14.20237,2.75 -1.62143,1.5125 3.68327,-4.9 11.78822,-14.25 z M 2.3967401,107.6648 C 1.04157,103.07197 0.57034029,98.057624 0.54871395,88 0.51431816,72.003768 1.9099634,65.733269 8.4500637,52.5 16.578313,36.053262 28.237981,24.409102 44.5,16.498013 57.725086,10.06432 64.125058,8.63106 79.5,8.6598382 c 11.208464,0.02098 14.240294,0.3976564 22,2.7332958 4.95,1.489929 12.30284,4.589324 16.33964,6.887544 7.04962,4.013461 19.26289,13.695997 20.02837,15.878245 0.2024,0.577023 -2.46678,3.90934 -5.93151,7.405151 l -6.29953,6.356019 -4.19898,-3.870483 C 101.85161,25.995509 75.252839,22.059965 51.74642,33.738072 41.056876,39.04869 30.541435,49.860481 25.231739,61 c -2.228358,4.675 -4.5421,10.884649 -5.141649,13.799221 -2.248562,10.930865 -0.660209,28.287659 3.294461,36.000359 L 24.769185,113.5 14.492461,113.6648 4.2157379,113.8296 Z M 144.75,112.21379 c -5.3625,-0.15742 -9.75,-0.43834 -9.75,-0.62428 0,-0.18593 0.675,-2.25121 1.5,-4.58951 0.825,-2.3383 1.5,-4.64488 1.5,-5.12573 C 138,101.39342 124.275,101 107.5,101 H 77 V 91.5 82 h 41 41 l -0.0309,4.25 c -0.0444,6.108077 -1.68757,17.58921 -3.18446,22.25 l -1.28466,4 -9.75,-0.28621 z"
         id="path266" />
      <path
         style="fill:#218fc9"
         d="m 402.27083,100.39583 c 0.33229,-0.33229 1.19479,-0.36781 1.91667,-0.0789 0.79773,0.31922 0.56078,0.55618 -0.60417,0.60416 -1.05416,0.0434 -1.64479,-0.19292 -1.3125,-0.52522 z m 14.29346,-7.688958 c 0.37553,-0.986221 0.93469,-1.541221 1.24258,-1.233333 0.30789,0.307887 6.4e-4,1.114794 -0.68278,1.793128 -0.98762,0.980267 -1.10248,0.865403 -0.5598,-0.559795 z m -29.9809,-3.248499 c -3.65969,-3.231516 -3.75809,-3.456287 -1.5,-3.42657 1.32914,0.01749 3.29012,0.692492 4.35774,1.5 1.84183,1.393093 1.84669,1.468197 0.095,1.468197 -1.78277,0 -1.78401,0.06862 -0.0361,2 2.70769,2.991959 1.48693,2.346707 -2.91661,-1.541627 z m 37.42922,2.570581 c -1.16897,-0.739091 -1.0084,-0.904339 0.75,-0.771883 1.23056,0.0927 2.23739,0.522776 2.23739,0.955733 0,1.043496 -1.159,0.972169 -2.98739,-0.18385 z m -31.05845,-3.1146 c -0.61391,-1.147106 -0.92784,-2.274008 -0.69762,-2.504226 0.23022,-0.230219 0.93203,0.708322 1.55958,2.085646 1.37807,3.024536 0.70709,3.350374 -0.86196,0.41858 z M 298,87.5 c 1.29175,-1.375 2.57363,-2.5 2.84863,-2.5 0.275,0 -0.55688,1.125 -1.84863,2.5 -1.29175,1.375 -2.57363,2.5 -2.84863,2.5 -0.275,0 0.55688,-1.125 1.84863,-2.5 z m 123.73333,0.375912 c 0.67834,-0.683418 1.48524,-0.990671 1.79313,-0.682784 0.30789,0.307887 -0.24711,0.867048 -1.23333,1.242579 -1.4252,0.542685 -1.54006,0.427821 -0.5598,-0.559795 z M 410,85.5 c 1.29175,-1.375 2.57363,-2.5 2.84863,-2.5 0.275,0 -0.55688,1.125 -1.84863,2.5 -1.29175,1.375 -2.57363,2.5 -2.84863,2.5 -0.275,0 0.55688,-1.125 1.84863,-2.5 z M 389.72422,82.409637 C 388.7759,81.152417 388,78.590069 388,76.71553 c 0,-1.87454 -0.70725,-4.825965 -1.57166,-6.558724 -1.33074,-2.667525 -1.86726,-2.992269 -3.5,-2.118454 -2.32065,1.241972 -2.30261,1.584098 -0.32373,-6.140205 3.84377,-15.003707 -3.8939,-30.621308 -18.38491,-37.107857 -7.35543,-3.292479 -18.0801,-3.071798 -25.42808,0.523232 -6.74624,3.300627 -13.92887,10.860523 -16.3555,17.214576 C 321.49681,44.987644 320.40916,47 320.01913,47 319.0294,47 316.42825,43.850356 315.68338,41.75 314.90023,39.541667 313,39.459509 313,41.63398 c 0,0.89869 0.52123,3.37369 1.15829,5.5 0.91609,3.057647 1.64793,3.86602 3.5,3.86602 2.04033,0 2.36102,0.514805 2.49171,4 0.0825,2.2 0.195,4.534751 0.25,5.188336 0.23472,2.789234 -18.47235,8.121658 -19.97314,5.693318 -0.40729,-0.659011 -0.31178,-0.928567 0.21389,-0.60368 0.58714,0.362868 0.68613,-1.582675 0.25928,-5.095492 C 300.52026,57.057117 300.57335,52.925 301.01802,51 c 0.44467,-1.925 1.34902,-5.901185 2.00968,-8.835966 4.4496,-19.766155 20.30428,-33.9543323 42.7223,-38.2317328 11.92638,-2.2755747 27.25683,2.4184436 38.97731,11.9344258 8.43555,6.848918 17.25418,23.125812 17.28634,31.906102 0.008,2.049944 0.28748,4.749155 0.62215,5.998246 0.51764,1.932009 0.85152,2.081307 2.23634,1 1.38925,-1.084759 1.4571,-1.051203 0.4629,0.228925 -0.64073,0.825 -1.11791,1.725 -1.06041,2 0.0575,0.275 -0.41707,1.4 -1.05462,2.5 -0.63756,1.1 -1.17288,1.464058 -1.1896,0.809017 -0.0167,-0.655041 0.42693,-1.473635 0.9859,-1.819098 0.55897,-0.345464 0.75742,-1.047021 0.44098,-1.559017 -1.08131,-1.7496 -3.49889,-0.933711 -4.63739,1.565036 -0.93718,2.056877 -0.82334,2.842777 0.64713,4.467629 1.68709,1.86421 1.6939,2.24825 0.12495,7.045014 -1.68548,5.153059 -1.41023,7.561036 0.72712,6.361026 0.88756,-0.498322 0.89785,-0.355946 0.0414,0.57317 -0.89384,0.969699 -1.71854,0.73186 -3.82565,-1.103296 -4.5746,-3.984177 -6.30498,-4.16265 -7.05933,-0.728105 -0.54639,2.48767 -0.15014,3.483072 2.33009,5.853309 2.47547,2.365693 2.7013,2.930994 1.31562,3.293355 -0.95263,0.24912 -2.41512,-0.546653 -3.39703,-1.848403 z m 34.04423,1.421913 c 0.5811,-0.581102 1.64682,-0.859794 2.36826,-0.619313 0.74895,0.249648 0.29565,0.702941 -1.05655,1.05655 -1.66335,0.434974 -2.05378,0.304831 -1.31171,-0.437237 z M 274.28601,79.5 c 0.008,-2.75 0.20172,-3.756313 0.43157,-2.23625 0.22986,1.520062 0.22371,3.770062 -0.0136,5 C 274.46657,83.493687 274.27851,82.25 274.28601,79.5 Z m 32.72058,-0.79966 c -0.004,-0.989813 -0.69315,-3.127313 -1.53227,-4.75 L 303.94864,71 h 3.52568 c 4.1776,0 4.61011,1.842662 1.52568,6.5 -1.47251,2.223409 -1.98853,2.534134 -1.99341,1.20034 z m 117.5577,-5.993468 c 0.37553,-0.986221 0.93469,-1.541221 1.24258,-1.233333 0.30789,0.307887 6.4e-4,1.114794 -0.68278,1.793128 -0.98762,0.980267 -1.10248,0.865403 -0.5598,-0.559795 z M 424.125,69.125 C 424.33125,68.50625 424.8375,68 425.25,68 c 1.17109,0 0.87974,1.456754 -0.375,1.875 -0.61875,0.20625 -0.95625,-0.13125 -0.75,-0.75 z M 275.07895,67.583333 c -0.0434,-1.054166 0.19293,-1.644791 0.52522,-1.3125 0.33229,0.332292 0.36781,1.194792 0.0789,1.916667 -0.31922,0.797733 -0.55618,0.560776 -0.60416,-0.604167 z m 144.37993,-5.649864 c -0.36253,-0.586592 -0.44468,-1.281 -0.18255,-1.543128 0.26212,-0.262129 0.74306,0.21781 1.06875,1.066531 0.67618,1.762107 0.0999,2.072058 -0.8862,0.476597 z M 296.07895,48.583333 c -0.0434,-1.054166 0.19293,-1.644791 0.52522,-1.3125 0.33229,0.332292 0.36781,1.194792 0.0789,1.916667 -0.31922,0.797733 -0.55618,0.560776 -0.60416,-0.604167 z M 298.19495,41.5 c -0.0204,-1.65 0.18706,-2.446064 0.46099,-1.769032 0.27392,0.677033 0.29059,2.027033 0.0371,3 C 298.43945,43.703936 298.21533,43.15 298.19495,41.5 Z M 302,27.5 c 0.68469,-0.825 1.46989,-1.5 1.74489,-1.5 0.275,0 -0.0602,0.675 -0.74489,1.5 -0.68469,0.825 -1.46989,1.5 -1.74489,1.5 -0.275,0 0.0602,-0.675 0.74489,-1.5 z M 411.40499,25.75 409.5,23.5 l 2.25,1.904988 c 1.2375,1.047743 2.25,2.060243 2.25,2.25 0,0.800253 -0.80479,0.209457 -2.59501,-1.904988 z m -5,-5 -1.90499,-2.25 2.25,1.904988 c 1.2375,1.047743 2.25,2.060243 2.25,2.25 0,0.800253 -0.80479,0.209457 -2.59501,-1.904988 z M 339.27083,1.3958333 c 0.33229,-0.3322916 1.19479,-0.3678179 1.91667,-0.078947 0.79773,0.3192263 0.56078,0.5561827 -0.60417,0.6041666 -1.05416,0.043421 -1.64479,-0.1929276 -1.3125,-0.5252196 z m 26,0 c 0.33229,-0.3322916 1.19479,-0.3678179 1.91667,-0.078947 0.79773,0.3192263 0.56078,0.5561827 -0.60417,0.6041666 -1.05416,0.043421 -1.64479,-0.1929276 -1.3125,-0.5252196 z M 349.7277,0.27826796 c 1.77523,-0.22091184 4.92523,-0.22454156 7,-0.008066 2.07476,0.21647552 0.6223,0.39722157 -3.2277,0.40165789 -3.85,0.004436 -5.54754,-0.17268001 -3.7723,-0.39359189 z"
         id="path264" />
      <path
         style="fill:#9d8832"
         d="M 342,170.05902 C 342,169.47656 342.45,169 343,169 c 1.28138,0 1.28138,0.70806 0,1.5 -0.55,0.33992 -1,0.14148 -1,-0.44098 z M 373.5,157 c 0.99549,-1.1 2.03498,-2 2.30998,-2 0.275,0 -0.31449,0.9 -1.30998,2 -0.99549,1.1 -2.03498,2 -2.30998,2 -0.275,0 0.31449,-0.9 1.30998,-2 z m -72.55383,-2.75 -3.44617,-3.75 3.75,3.44617 c 2.0625,1.89539 3.75,3.58289 3.75,3.75 0,0.76362 -0.84622,0.0443 -4.05383,-3.44617 z m 113.43026,-2.64448 c 3.70425,-3.6487 8.29674,-6.94242 12.05389,-8.64501 6.84794,-3.10322 19.46988,-5.28427 24.24017,-4.18868 l 3.17048,0.72817 -7.67048,6.47589 c -4.21877,3.56174 -7.05289,5.69924 -6.29805,4.75 C 441.1564,149.11127 440.48164,149 429.40679,149 H 417.5687 l -4.58824,4.25 c -2.52353,2.3375 -1.89534,1.59749 1.39597,-1.64448 z m -121.93934,0.32814 -2.93709,-3.06634 -12.20233,0.22854 -12.20233,0.22854 -5.69707,-4.86716 -5.69707,-4.86716 2.8994,-0.79492 c 3.63941,-0.99782 15.86998,0.62108 21.57983,2.85642 5.32211,2.08355 11.3691,6.14557 15.25666,10.24857 1.6154,1.70492 2.71209,3.09985 2.43709,3.09985 -0.275,0 -1.82169,-1.37985 -3.43709,-3.06634 z M 268.87244,152.25 c -1.24387,-1.58606 -1.2085,-1.62143 0.37756,-0.37756 0.9625,0.75485 1.75,1.54235 1.75,1.75 0,0.82304 -0.82119,0.29331 -2.12756,-1.37244 z m 139.57861,-1.0509 1.95105,-2.3009 -15.49959,0.3009 -15.49958,0.3009 1.39613,-4 c 0.92878,-2.66103 1.25587,-6.76595 0.97712,-12.26291 l -0.419,-8.26291 7.87303,-2.48709 C 396.1546,120.29968 398.90442,120 412.05162,120 421.05805,120 427,120.38616 427,120.97149 c 0,4.08423 -13.248,26.37059 -18.15039,30.53338 L 406.5,153.5 Z m -33.79816,-0.73692 c 0.52206,-1.36047 -1.96461,-1.50463 -21.56113,-1.25 l -22.15124,0.28782 -1.08406,-4 c -1.42545,-5.25972 -0.47548,-14.89008 2.05,-20.78178 L 333.92893,120 h 19.87502 19.87502 l 1.09726,2.40821 c 3.5736,7.8432 4.41448,19.80625 1.8274,25.998 -1.43064,3.42402 -3.18539,5.27342 -1.95074,2.05597 z m -47.18017,-0.50632 c -0.40904,-0.66184 -6.19727,-0.99151 -15.80887,-0.9004 l -15.16355,0.14374 -3.75063,-4.8496 C 289.39288,140.00925 280,122.6174 280,120.74233 c 0,-1.14963 28.99662,-0.86463 33.5,0.32926 2.2,0.58325 5.92528,1.77176 8.27841,2.64113 l 4.2784,1.58069 -0.63471,7.1033 c -0.50384,5.63865 -0.23241,8.28889 1.31639,12.85329 1.88186,5.54595 2.09409,6.90615 0.73423,4.70586 z M 135,143.5 c 1.29175,-1.375 2.57363,-2.5 2.84863,-2.5 0.275,0 -0.55688,1.125 -1.84863,2.5 -1.29175,1.375 -2.57363,2.5 -2.84863,2.5 -0.275,0 0.55688,-1.125 1.84863,-2.5 z m 69.75,1.75202 c 8.3875,-0.16726 22.1125,-0.16726 30.5,0 8.3875,0.16726 1.525,0.3041 -15.25,0.3041 -16.775,0 -23.6375,-0.13684 -15.25,-0.3041 z M 167.5,142 c 0.99549,-1.1 2.03498,-2 2.30998,-2 0.275,0 -0.31449,0.9 -1.30998,2 -0.99549,1.1 -2.03498,2 -2.30998,2 -0.275,0 0.31449,-0.9 1.30998,-2 z M 17.421061,137.25 C 12.825314,131.51552 4.2481529,115.41851 5.2529364,114.41373 c 0.2912297,-0.29123 4.5274237,-0.78852 9.4137646,-1.10509 l 8.884256,-0.57559 3.725238,6.03536 c 2.048881,3.31945 6.987415,9.14238 10.974521,12.93985 3.987106,3.79746 6.821784,6.54161 6.299284,6.09811 C 43.399155,136.82952 19,136.71414 19,137.68555 c 0,0.37705 0.978441,1.72705 2.174314,3 1.195873,1.27295 1.877453,2.31445 1.514623,2.31445 -0.362831,0 -2.733375,-2.5875 -5.267876,-5.75 z m 103.540749,-5.88141 c 3.046,-2.82227 7.56319,-8.32326 10.03819,-12.22441 l 4.5,-7.093 9.25,-0.0256 c 5.28065,-0.0146 9.25,0.38764 9.25,0.93739 C 154,116.41932 143.1463,137 141.32352,137 c -0.24285,0 -0.16344,-0.45 0.17648,-1 0.69844,-1.1301 -4.46372,-1.17806 -17.53819,-0.16293 L 115.42362,136.5 Z M 177.93425,130 c 3.53884,-4.125 8.92476,-10.0875 11.9687,-13.25 l 5.53444,-5.75 h 11.31649 c 13.38238,0 13.28883,-0.97157 1.25166,13 -10.35534,12.01945 -12.30945,14.0369 -11.49471,11.8673 0.55137,-1.46827 -0.52617,-1.58127 -10.69885,-1.12202 -6.22159,0.28087 -11.98698,1.01559 -12.81198,1.6327 -0.825,0.61711 1.39541,-2.25298 4.93425,-6.37798 z"
         id="path262" />
      <path
         style="fill:#1570b1"
         d="m 285.32814,212.5 c -0.004,-3.85 0.17268,-5.54754 0.39359,-3.7723 0.22091,1.77523 0.22454,4.92523 0.008,7 -0.21648,2.07476 -0.39722,0.6223 -0.40166,-3.2277 z m 27.40283,-9.15594 c 0.67703,-0.27392 2.02703,-0.29059 3,-0.0371 0.97297,0.25354 0.41903,0.47766 -1.23097,0.49804 -1.65,0.0204 -2.44606,-0.18706 -1.76903,-0.46099 z m -20.05979,-91.74113 c -3.12841,-0.97016 -4.63758,-2.44437 -8.25,-8.05885 C 279.8591,96.453608 278.8908,96.604735 281.5,104 c 1.87652,5.31863 1.87592,6.08149 -0.004,5.36001 -0.82732,-0.31747 -2.51482,-3.79084 -3.75,-7.71861 -1.93448,-6.151447 -2.24021,-9.290037 -2.20548,-22.6414 0.0383,-14.708771 0.19772,-15.945604 3.12373,-24.229293 C 290.37172,21.625705 319.03239,1 353.38172,1 364.66809,1 372.29899,2.2845607 381.5,5.7333391 413.73283,17.815042 435.43472,51.505769 432.55963,85 c -0.93018,10.836445 -4.31298,22.79763 -6.8282,24.14374 -1.77519,0.95005 -1.93826,0.8509 -1.27861,-0.77741 2.64929,-6.53956 4.67313,-16.191009 5.16187,-24.61633 0.47973,-8.269822 0.33684,-9.75 -0.94121,-9.75 -2.05361,0 -2.62943,-2.186908 -1.00384,-3.8125 0.7317,-0.731696 1.32347,-2.310714 1.31505,-3.508929 -0.0128,-1.814756 -0.19326,-1.928076 -1.08089,-0.678571 -0.81844,1.152117 -0.92434,0.853882 -0.45661,-1.285931 0.75415,-3.450217 -1.385,-10.858182 -5.49019,-19.012737 -4.55447,-9.047012 -5.64712,-9.900801 -6.51864,-5.093613 -1.07844,5.948524 -3.02624,9.012653 -7.83017,12.317841 -4.38805,3.019059 -4.38936,3.019269 -4.98504,0.797147 -0.32771,-1.222489 -0.60199,-3.899934 -0.6095,-5.949878 -0.0322,-8.78029 -8.85079,-25.057184 -17.28634,-31.906102 C 373.00683,6.3507448 357.67638,1.6567265 345.75,3.9323012 320.56291,8.7380455 305.52036,24.195272 301.47211,49.430814 c -0.86234,5.375557 -2.43651,2.74915 -2.4568,-4.099027 C 298.99829,39.587709 298.29925,37 296.76456,37 c -1.79343,0 -0.33867,20.933291 1.75177,25.207172 0.99728,2.038944 2.12409,3.515062 2.504,3.280262 0.37992,-0.2348 0.47937,0.678876 0.22101,2.030391 -0.31911,1.66932 0.0597,2.660481 1.18145,3.090919 1.96805,0.755211 4.57721,5.483587 4.57721,8.294911 0,1.101636 -1.1531,2.811483 -2.56245,3.79966 -9.55128,6.696965 -9.89951,7.714537 -6.18776,18.081585 2.32143,6.48383 2.18603,7.14438 -1.74979,8.53622 -0.59195,0.20934 -0.43997,1.03207 0.37244,2.01626 1.56123,1.89132 1.12929,1.91862 -4.20126,0.26555 z m 9.01437,-82.777244 C 303.90397,26.741583 304.87418,23 303.19617,23 c -1.37165,0 -7.27094,6.591899 -6.54709,7.315749 1.18624,1.186241 2.64802,0.753767 5.03647,-1.490063 z m 98.72566,70.67655 c -0.3448,-1.37377 -0.25898,-3.28627 0.19071,-4.25 0.62127,-1.331433 0.90182,-0.851666 1.16822,1.997764 0.38716,4.14118 1.72819,4.61466 7.98646,2.81981 C 411.54047,99.558199 413,99.510054 413,99.962817 413,101.25302 410.22695,102 405.43726,102 c -3.85739,0 -4.47636,-0.3076 -5.02605,-2.497764 z M 408,93.411516 C 408,92.635182 407.55,92 407,92 c -0.55,0 -1,-0.9 -1,-2 0,-1.1 0.60118,-2 1.33596,-2 1.47419,0 8.03162,-6.909552 9.03233,-9.517361 1.11279,-2.899899 3.10563,-0.962509 3.18543,3.096802 0.1153,5.86548 -2.89103,12.402305 -5.74749,12.49707 -1.26843,0.04208 -3.09373,0.227264 -4.05623,0.411516 -0.99836,0.191117 -1.75,-0.271256 -1.75,-1.076511 z m 13.5703,-1.33532 c -0.61911,-1.840309 -0.37001,-2.749481 1.03472,-3.776645 1.60045,-1.170281 1.94487,-1.11309 2.55226,0.423805 1.07853,2.72899 0.9651,3.260836 -0.56982,2.671834 -0.84076,-0.32263 -1.57226,0.196057 -1.80714,1.281385 -0.33122,1.530503 -0.5256,1.434055 -1.21002,-0.600379 z m -32.69786,-1.744851 c -1.24681,-1.515907 -1.06528,-1.607803 1.98305,-1.003901 3.53918,0.701143 3.47245,0.889891 1.44159,-4.077444 C 391.98894,84.496315 392.58013,84 393.78602,84 395.60465,84 397,85.76096 397,88.056107 397,88.822432 391.90166,92 390.6721,92 c -0.23496,0 -1.04481,-0.750895 -1.79966,-1.668655 z m 9.70355,-14.208396 c -0.35387,-0.572575 0.12131,-3.379017 1.05595,-6.236537 l 1.69936,-5.195492 1.83435,2.265324 c 1.00889,1.245928 1.83435,2.80628 1.83435,3.467449 0,1.863929 -5.67999,6.903106 -6.42401,5.699256 z m 25.88289,-8.18948 c -0.36253,-0.586592 -0.44468,-1.281 -0.18255,-1.543128 0.26212,-0.262129 0.74306,0.21781 1.06875,1.066531 0.67618,1.762107 0.0999,2.072058 -0.8862,0.476597 z m -3.80649,-5.098934 C 419.70871,59.310113 419.87707,56 421,56 c 0.55,0 1,1.35 1,3 0,2.160401 0.48977,3.022095 1.75,3.078947 1.39393,0.06289 1.4448,0.195127 0.25,0.649944 -0.825,0.314049 -1.77507,0.991563 -2.11126,1.505588 -0.3362,0.514025 -0.89255,-0.11595 -1.23635,-1.399944 z M 403,60.118034 c 0,-0.55 0.45,-1.278115 1,-1.618034 0.55,-0.339919 1,-0.168034 1,0.381966 0,0.55 -0.45,1.278115 -1,1.618034 -0.55,0.339919 -1,0.168034 -1,-0.381966 z M 417.15789,47 c 0,-1.375 0.22698,-1.9375 0.50439,-1.25 0.27741,0.6875 0.27741,1.8125 0,2.5 -0.27741,0.6875 -0.50439,0.125 -0.50439,-1.25 z"
         id="path260" />
      <path
         style="fill:#56843a"
         d="m 316.5,176.34941 c -5.74149,-0.91707 -15.33873,-4.24305 -22.16943,-7.68294 C 284.56005,163.74612 267,151.47303 267,149.56456 267,149.25405 271.9636,149 278.03023,149 h 11.03022 l 8.02861,6.83692 c 8.99925,7.66351 18.25181,12.71056 25.99321,14.17868 6.01879,1.14144 18.06824,1.11025 22.41773,-0.058 1.91047,-0.51315 0.45776,-0.62078 -4,-0.29634 -8.55845,0.62289 -19.18931,-1.45661 -26.57215,-5.19778 C 309.87207,161.90148 298,151.65103 298,149.84778 c 0,-0.46628 6.4125,-0.8421 14.25,-0.83516 l 14.25,0.0126 4.63628,5.28744 c 2.68523,3.06237 7.16277,6.63405 10.63998,8.48738 8.1833,4.36166 8.67629,4.01773 1.30076,-0.90746 C 337.70036,158.3022 332,152.06268 332,149.76787 332,149.34554 341.675,149 353.5,149 c 11.825,0 21.5,0.24735 21.5,0.54966 0,0.30231 -0.63483,1.76481 -1.41072,3.25 -1.87171,3.58274 -6.07833,7.46534 -11.58928,10.69659 -2.70269,1.58468 -3.5015,2.37418 -2,1.9767 5.09143,-1.34782 13.3799,-7.11423 16.85021,-11.72295 l 3.5767,-4.75 h 14.87057 14.87058 l -3.13304,3.95579 C 403.08354,157.94494 392.18069,165.177 385,167.57203 c -3.7983,1.26688 -8.54353,1.84557 -15.33688,1.87035 -7.75633,0.0283 -9.02536,0.21386 -6,0.87736 6.2872,1.37886 21.16023,0.1747 27.45119,-2.22252 6.61905,-2.52224 15.56948,-8.52637 21.95386,-14.72709 l 4.56816,-4.43675 11.93184,0.28331 L 441.5,149.5 l -7.43085,5.81151 c -27.16715,21.24686 -52.06881,26.67351 -73.14447,15.93989 l -7.57533,-3.85803 -3.48371,2.31188 c -7.7042,5.11272 -23.3936,8.23698 -33.36564,6.64416 z M 66.869528,165.99743 C 54.571436,164.04116 40.855563,158.02044 31.305859,150.38639 25.497919,145.74352 19.108241,139.16213 19.037547,137.75 19.016896,137.3375 24.218988,137 30.597752,137 c 11.501127,0 11.665671,0.0333 19.75,3.99489 12.023358,5.89188 18.919631,7.33844 32.133226,6.74028 12.320197,-0.55771 19.423992,-2.58561 28.519022,-8.14122 5.22807,-3.19351 6.13039,-3.39511 18.25,-4.07748 7.0125,-0.39482 12.75,-0.4086 12.75,-0.0306 0,0.37799 -2.8125,3.62602 -6.25,7.21786 -10.35567,10.82062 -22.68092,18.09868 -36.75,21.70087 -7.834186,2.00584 -24.378246,2.82599 -32.130472,1.59284 z m 83.297142,-2.87506 c 0.18333,-0.48269 5.68251,-7.00769 12.2204,-14.5 L 174.27414,135 l 7.61293,-0.011 c 4.18711,-0.006 9.30043,-0.28993 11.36293,-0.63084 4.67876,-0.77335 4.72001,0.14014 0.25971,5.75112 -1.91967,2.4149 -3.49467,4.72823 -3.5,5.14073 C 190.00437,145.6625 203.5,146 220,146 h 30 v 9 9 h -50.08333 c -28.31979,0 -49.93849,-0.38137 -49.75,-0.87763 z"
         id="path258" />
      <path
         style="fill:#2f2f75"
         d="m 206.5,243.03964 c -9.38382,-2.59587 -19.86541,-7.00206 -32.25584,-13.55954 -7.7884,-4.12191 -10.92504,-5.29392 -13.03736,-4.87146 -3.51108,0.70222 -7.86363,-2.4546 -6.8884,-4.99601 0.5146,-1.34102 1.06249,-1.47915 2.60102,-0.65575 3.32879,1.78151 5.79955,1.16582 8.57946,-2.13792 2.10872,-2.50607 2.59939,-3.99135 2.31247,-7 -0.45549,-4.77616 0.46422,-4.86536 2.65097,-0.25711 1.92618,4.05912 1.05347,8.19576 -2.5349,12.01541 l -2.03232,2.1633 3.30245,1.91042 c 13.74399,7.95071 34.71177,15.34696 45.30245,15.98015 9.40387,0.56223 11.99411,-0.45133 15.04273,-5.88621 1.60814,-2.86691 2.35636,-3.44583 3.27117,-2.53102 1.89248,1.89248 1.38155,5.44735 -1.21716,8.46853 -2.20547,2.56402 -3.04904,2.81452 -10.25,3.0438 -5.3578,0.17059 -10.0671,-0.36438 -14.84674,-1.68659 z m 50.16667,-12.70631 C 255.64419,229.31086 255.87528,227 257,227 c 0.55,0 1,0.675 1,1.5 0,1.83682 5.04079,2.05921 6.8,0.3 3.05402,-3.05402 0.0966,-9.71573 -4.37874,-9.86339 -1.71672,-0.0566 -1.68868,-0.15709 0.26337,-0.94359 C 262.83525,217.12651 265,214.15318 265,212.06574 265,211.47958 264.1,210.1 263,209 c -2.41278,-2.41278 -0.47573,-2.72194 2.77749,-0.4433 2.73494,1.91563 2.84979,4.81602 0.29199,7.37382 -1.90735,1.90735 -1.90135,1.94962 0.5,3.52305 3.04589,1.99574 3.25886,6.71809 0.43052,9.54643 -1.95727,1.95727 -8.82344,2.84323 -10.33333,1.33333 z M 186.75,226.56157 c -1.26882,-0.92954 -1.75,-2.67907 -1.75,-6.3628 0,-5.86632 -0.91879,-6.83052 -4.74594,-4.9805 -2.25005,1.08765 -2.74075,1.96728 -2.68132,4.80651 0.04,1.91137 0.45398,4.33654 0.91994,5.38926 0.63431,1.43308 0.52704,1.71618 -0.42687,1.12663 -1.37977,-0.85274 -5.00809,-8.2554 -5.04385,-10.29067 -0.0463,-2.63625 3.9256,-5.25 7.97804,-5.25 3.77778,0 4,-0.16667 4,-3 v -3 l -8.75,0.0147 c -9.73248,0.0164 -13.57875,1.33923 -14.08033,4.84258 -0.31632,2.20934 -0.4118,2.23353 -2.25,0.56998 C 158.86385,209.4718 158,207.85977 158,206.84501 158,205.5502 157.26425,205 155.53275,205 c -2.45904,0 -2.46819,0.0372 -2.75,11.1819 -0.26932,10.65087 -0.36586,11.09864 -2.03275,9.42858 C 149.33104,224.18882 149,222.07356 149,214.42857 149,206.71429 148.72727,205 147.5,205 c -1.87112,0 -2.11554,7.98446 -0.3,9.8 0.93333,0.93333 0.93333,1.2 0,1.2 -0.77814,0 -1.2,1.81222 -1.2,5.15499 0,5.09164 -0.0246,5.13275 -2,3.34501 -1.33941,-1.21215 -2,-3.07997 -2,-5.65499 C 142,215.66667 141.65323,215 140,215 c -1.5457,0 -2,0.66667 -2,2.9349 0,8.51799 -4.5617,10.60621 -9.89641,4.5303 C 126.39662,220.52107 125,218.34081 125,217.62019 125,216.0477 128.18527,213 129.82874,213 c 2.13519,0 1.1438,-1.46649 -2.86669,-4.2405 -5.56209,-3.84722 -5.09643,-7.7595 0.92357,-7.7595 1.87182,0 7.17625,5.1402 9.02957,8.75 0.63535,1.2375 2.03934,2.25 3.11999,2.25 1.57884,0 1.96482,-0.68756 1.96482,-3.5 0,-3.30244 -0.18881,-3.5 -3.34501,-3.5 -2.07502,0 -4.0322,-0.75933 -5.15499,-2 -1.80627,-1.99591 -1.74663,-2 29.14501,-2 30.40634,0 33.35499,0.28289 33.35499,3.2 0,0.44 -1.56072,0.8 -3.46826,0.8 h -3.46827 l -0.28173,11.42182 c -0.26331,10.67463 -0.39622,11.33795 -2.03174,10.13975 z m -53.33449,-6.80177 c 1.17731,-3.34766 0.40983,-4.27187 -2.32986,-2.80564 -2.65752,1.42226 -2.95781,6.36045 -0.35631,5.85945 0.95113,-0.18317 2.15991,-1.55739 2.68617,-3.05381 z M 131,206 c 0,-2.28944 -0.37535,-2.40467 -3.09375,-0.94983 C 125.60438,206.28209 126.27573,208 129.05902,208 130.33333,208 131,207.31306 131,206 Z m 77.83226,14.32916 c 4.99615,-4.18823 6.65564,-7.54899 5.1327,-10.39463 -1.12534,-2.10272 -2.65859,-2.41415 -4.90066,-0.99543 -1.15092,0.72827 -1.19088,1.20346 -0.20144,2.39566 0.84256,1.01521 0.89925,1.69423 0.17864,2.13959 -1.29489,0.80029 -2.46492,-1.92854 -1.69131,-3.94455 C 208.9284,205.41706 218,207.62499 218,212.12184 218,214.13159 212.70695,220 210.89424,220 210.40241,220 210,220.45 210,221 c 0,1.40664 5.35074,1.24926 6.8,-0.2 0.93333,-0.93333 1.2,-0.71111 1.2,1 0,2.05132 -0.45619,2.19868 -6.75,2.18043 l -6.75,-0.0196 4.33226,-3.6317 z m 14.59545,1.59097 c -2.6916,-2.97419 -2.50973,-9.28256 0.35007,-12.14235 3.16011,-3.16012 9.73008,-3.10377 12.32898,0.10573 2.66473,3.29081 2.51387,9.46037 -0.29532,12.07753 -3.02162,2.81507 -9.81942,2.79261 -12.38373,-0.0409 z m 10.96514,-3.03292 c 1.82701,-7.39278 -2.05182,-12.65113 -6.95991,-9.43523 -1.91316,1.25356 -2.43294,2.45781 -2.43294,5.63681 0,5.95914 1.46911,8.09232 5.31644,7.71961 2.73275,-0.26473 3.30999,-0.81999 4.07641,-3.92119 z m 10.97031,0.15563 c 5.15006,-5.50584 5.73787,-8.11485 2.38684,-10.59406 -2.24917,-1.66401 -2.24889,-1.66437 0.73998,-0.97742 5.8967,1.35528 6.02792,5.43454 0.34363,10.68225 L 244.66722,222 h 2.96639 c 1.63151,0 3.50639,-0.54 4.16639,-1.2 0.93333,-0.93333 1.2,-0.71111 1.2,1 0,2.02767 -0.4807,2.2 -6.13684,2.2 h -6.13684 z m 36.45781,-6.04054 C 282.09468,205.32539 282.392,204 283.8404,204 c 1.4771,0 1.65024,0.95508 1.32842,7.32796 -0.29594,5.86051 -0.0352,7.66279 1.302,9 1.56272,1.56272 1.45488,1.67219 -1.64939,1.67434 l -3.32143,0.002 0.32097,-9.00229 z m 8.92903,8.33542 c 0.86104,-0.34744 1.25,-3.12339 1.25,-8.92105 0,-7.70218 0.16693,-8.41667 1.96648,-8.41667 1.25519,0 3.81917,2.4415 7.0886,6.75 l 5.12212,6.75 -0.3386,-6.7521 c -0.20362,-4.06038 0.06,-6.75217 0.6614,-6.75229 0.61639,-1.3e-4 0.87687,3.45316 0.67903,9.00209 -0.17653,4.95127 -0.62653,8.99061 -1,8.97631 -0.37347,-0.0143 -3.37903,-3.72679 -6.67903,-8.25 l -6,-8.22401 -0.30085,6.97624 c -0.24607,5.70616 0.0163,7.20813 1.44113,8.25 1.53105,1.11952 1.32531,1.2642 -1.69915,1.19481 -1.89262,-0.0434 -2.87863,-0.30592 -2.19113,-0.58333 z m 22.08058,-0.13519 c 0.9717,-0.67198 1.24142,-3.09928 1,-8.99945 l -0.33058,-8.07929 3.35218,-0.62638 c 1.8437,-0.34451 3.6062,-0.37236 3.91667,-0.0619 C 321.07932,203.74598 320.35833,204 319.16667,204 317.11438,204 317,204.44872 317,212.5 v 8.5 h 2.9433 c 3.84306,0 6.0567,-3.18795 6.0567,-8.72251 0,-2.94416 -0.62342,-4.90091 -2,-6.27749 -2.62401,-2.62401 -0.99964,-2.57416 2.36514,0.0726 2.11946,1.66716 2.63486,2.91695 2.63486,6.38922 0,6.84313 -2.29196,8.84953 -10.61638,9.29364 -4.38453,0.23392 -6.40055,0.0332 -5.55304,-0.55291 z m 19.91942,0.13519 c 1.55335,-0.62679 1.7442,-15.44352 0.21858,-16.96914 -0.70856,-0.70856 -0.16076,-0.90441 1.75,-0.62567 l 2.78142,0.40575 -0.33058,8.06685 c -0.24244,5.9161 0.0242,8.29175 1,8.91036 0.84392,0.53499 -0.13242,0.82023 -2.66942,0.77987 -2.2,-0.035 -3.4375,-0.29061 -2.75,-0.56802 z M 343.09459,220.25 c 0.73671,-0.9625 1.40966,-1.88035 1.49544,-2.03966 0.0858,-0.15932 0.39599,0.62818 0.68935,1.75 0.4074,1.55792 0.0542,2.03966 -1.49544,2.03966 -1.77583,0 -1.86179,-0.21823 -0.68935,-1.75 z m 9.43842,0.69658 c 0.35808,-0.57938 -0.16023,-3.76175 -1.15178,-7.07195 -1.5964,-5.32935 -1.95046,-5.81664 -3.09203,-4.25545 -0.70906,0.96969 -1.2892,1.43762 -1.2892,1.03983 0,-1.32534 3.01987,-7.97247 3.43389,-7.55845 0.2242,0.2242 1.79321,4.20418 3.48668,8.8444 1.69347,4.64022 3.64162,8.79398 4.32923,9.23059 0.74442,0.47267 -0.29079,0.80002 -2.55882,0.80914 -2.41654,0.01 -3.57101,-0.36979 -3.15797,-1.03811 z M 345.0856,216.5 c 0.10413,-1.89422 1.77076,-5.08385 1.8288,-3.5 0.0302,0.825 -0.38124,2.175 -0.9144,3 -0.53316,0.825 -0.94464,1.05 -0.9144,0.5 z m -102.72397,-4 c -0.74181,-1.93311 0.2447,-4.5 1.72943,-4.5 0.86366,0 0.85934,0.35484 -0.0172,1.41097 -0.80051,0.96456 -0.83925,1.61601 -0.12245,2.05902 0.57671,0.35642 1.04856,1.07149 1.04856,1.58903 0,1.50905 -2.00805,1.08358 -2.63837,-0.55902 z m 15,0 c -0.76913,-2.0043 0.26581,-4.5037 1.85699,-4.48469 0.89771,0.0107 0.83475,0.29768 -0.21026,0.95836 -1.18796,0.75105 -1.23886,1.19583 -0.25,2.18469 C 259.44126,211.84126 260,212.76 260,213.2 c 0,1.40063 -2.03998,0.8594 -2.63837,-0.7 z M 107,202.5 c -1.08462,-1.30689 -0.41692,-1.5 5.18643,-1.5 4.10672,0 7.13293,0.53068 8.37244,1.4682 1.76616,1.33585 1.29867,1.47106 -5.18643,1.5 -5.14592,0.023 -7.47366,-0.38524 -8.37244,-1.4682 z"
         id="path256" />
    </g>
  </g>
</svg>
