<svg id="Layer_1" data-name="Layer 1" xmlns="http://www.w3.org/2000/svg" viewBox="0 0 684.86 300"><defs><style>.cls-1{fill:#fff;fill-rule:evenodd;}</style></defs><title>Swacch-Bharat</title><polygon class="cls-1" points="192.6 112.44 245.41 112.44 245.41 122.07 192.6 122.07 192.6 112.44 192.6 112.44"/><polygon class="cls-1" points="192.6 130 245.41 130 245.41 139.63 192.6 139.63 192.6 130 192.6 130"/><path class="cls-1" d="M75.89,149.47a13.16,13.16,0,0,1-3.24.55,14,14,0,0,1-4.77-.68V137.4H96.57v9.33a33.44,33.44,0,0,0-5-4.89,10.48,10.48,0,0,0-5.12-1.18C80.36,140.66,76,144.71,75.89,149.47ZM370.76,137.4v5.39h-8.89c-6.43,0-9.3,3.67-9.3,7.14,0,4.26,2.3,8.2,9,17.73l2.49-1.9c-3.38-4-5.71-8.16-5.71-11.21,0-3.52,1.26-6,5.71-6h6.83v15.36l6.09,4.28V137.4h6.69l-3.32-5.7H294.87l3.37,5.7h4.91v12.87H292.78l.21-7.4c0-4.09-2.31-11.17-9.52-11.17a6.73,6.73,0,0,0-7.05,6.4c0,.15,0,.3,0,.45,0,3.8,3.15,7.74,10.78,9.51l-.36,2.19h-3.38a1.9,1.9,0,0,0-1.91,1.9v.16c0,2.37,6.6,8.58,8.68,8.58,1.5,0,1.9-1.14,2-4.84h10.87v7.85l6,4.28V137.4h8.23v26.46l6,4.28V137.4H337v9.41c0,.74-.28,1.21-.74,1.21-1.16,0-2.78-1.69-4.55-1.69-.89,0-2.09,1.5-1.9,2.23,0,1.12,1.2,2.91,3.61,5.86l11.42,14.12,2.4-2.4a75.51,75.51,0,0,1-8.74-10.07,9,9,0,0,0,4.38-6.66v-12Zm-83,2.19-.22,5.45c-3.94-.67-5.71-2.46-5.71-5.29a4.43,4.43,0,0,1,3.31-4.27c1.08,0,2.7,1.09,2.55,4.11Zm-131.43,1.7v-3.81h9.51l-3.25-5.71H49.23l3.26,5.71H61.9v10.09c0,.49-.15.83-.32.83-.72,0-2.23-1.9-3.59-1.9a2.61,2.61,0,0,0-2.46,2.4,14.87,14.87,0,0,0,2.84,6.37l10.8,14.91,2.53-2.5a85.84,85.84,0,0,1-8.58-10.35,19.75,19.75,0,0,0,4.47-4.83c1.7,1.58,3.71,3.4,6,3.4a15.48,15.48,0,0,0,4.05-.63,12.92,12.92,0,0,0,10.14,6.17c2.74,0,5.51-1.29,9-3.94v6.28l5.84,4.28V137.4h48.13v3.22a7,7,0,0,0-6.32,7.14c0,3.54,2.72,6.89,8.16,9.89a17.21,17.21,0,0,1-12.11,5.71c-3.11,0-4-.89-4-2.49,0-1.9,1.9-3.94,7.74-3.94l-2.51-6a9.75,9.75,0,0,0-5.71,1,5.68,5.68,0,0,1-1-.81l-1.09-1.62a3.31,3.31,0,0,1,0-.63,3.5,3.5,0,0,1,3.73-3.26h.08a19.43,19.43,0,0,1,3.8.38l-2.72-5.5a11.43,11.43,0,0,0-2.8-.35,6.77,6.77,0,0,0-7,4.53l-1-1.9H107.47l3.27,5.71h3.8a7.91,7.91,0,0,0-1,4.17c0,4.3,5.46,10,10.54,10a14.45,14.45,0,0,0,7.61-3.41c1,4.17,7,8.93,12.3,8.93,7.61,0,17.58-7.42,17.58-17.53a14.12,14.12,0,0,0-5.29-9.32Zm-26.81,7.21a17.52,17.52,0,0,0,2.14,3.2c-4.19,4-8,6.14-10.92,6.14-1.53,0-2.29-.61-2.29-2.05a8.4,8.4,0,0,1,4-6.45,11.31,11.31,0,0,1,5-.84Zm24.39,7.23a7.75,7.75,0,0,1-3.61-6.26c0-2.61,1.77-5,3.94-5,1.14,0,2.07,1,2.07,3.8A15.6,15.6,0,0,1,153.9,155.73Zm-69.19,1.09a3.31,3.31,0,0,1-3.27-3.35c0-.12,0-.23,0-.35a6.35,6.35,0,0,1,6-6.71h.07a13.85,13.85,0,0,1,9.15,3.8V151c-3.25,2.38-9.23,5.71-12,5.71Z"/><path class="cls-1" d="M38.58,280.49v-13H58.37v8h0a9.23,9.23,0,0,0-3.2-4,8.54,8.54,0,0,0-3.81-.93A7.05,7.05,0,0,0,44,277.29c0,.08,0,.16,0,.24,0,3.8,5,8.2,9.17,8.2a9.68,9.68,0,0,0,5.37-2.36v4.47l4.58,3.25V280.76a15.92,15.92,0,0,1,6.55-3.92,1.69,1.69,0,0,1,1.5,1.6,26.6,26.6,0,0,1-3.39,8.12L72,289.72a18.26,18.26,0,0,0,2.68-8.14c0-4.78-3.33-8.58-6.7-8.58a9.66,9.66,0,0,0-4.89,2.09v-7.61H78.17l-2.55-4.27H16.19l2.49,4.27h3.6v14c0,1,.32,1.9,1.9,3,1,.65,12.54,7.48,13.85,8.38a2.48,2.48,0,0,1,1.31,2.07,5.86,5.86,0,0,1-.78,2.06L42.73,300a7.7,7.7,0,0,0,1.9-3.94,3.94,3.94,0,0,0-2.19-3.31l-11.28-7c-3.8-2.39-4.22-3.63-4.22-4.89V267.46h7v9.68c0,1.91-.53,2.52-1.71,2.52-.71,0-1.47-.19-2-.23l1.9,3.37a13.74,13.74,0,0,0,4,.89c1.61,0,2.37-.65,2.37-3.23Zm371-13h3.57v7.06c0,.53-.17.87-.53.87-.86,0-2.06-1.24-3.37-1.24-.72,0-1.58,1.11-1.44,1.64,0,.86.87,2.19,2.72,4.42l8.44,10.54,1.79-1.77a65,65,0,0,1-6.54-7.61,6.73,6.73,0,0,0,3.27-5v-9h8.67l-2.56-4.26H401.4a47.05,47.05,0,0,0-6.92-10.13,6,6,0,0,0-4.21-1.79c-1.23,0-2.72,0-2.72,1.07,0,.59.21,1.06,2.15,4.51a12.32,12.32,0,0,1,2.9-.5,3.59,3.59,0,0,1,2.58,1.18,30.19,30.19,0,0,1,4.36,5.71h-16.1l2.42,4.27h3.29v6.31c0,1.32-2.68,2.88-4.85,2.88a6.2,6.2,0,0,1-3.94-1.91,4.14,4.14,0,0,0,2.21-3.59c0-3.62-5.16-8.55-9.51-8.55a27.72,27.72,0,0,0-6.7,1.77l2.36,4.48a23.4,23.4,0,0,1,7.61-2.08c1.27,0,2.15.44,2.15,1.81,0,2.32-2.32,4.3-7.1,5-1,.14-1.27.44-1.27.65a18.8,18.8,0,0,0,2.76,3.81,20.52,20.52,0,0,0,5.61-2.19,7.12,7.12,0,0,1,1,3.63c0,2.36-2.34,4.21-5.37,4.21s-5.7-2.48-7.91-7.12l-1.9,1.1c2.78,5.87,7.4,10,11.58,10,4.47,0,7.61-2.87,7.61-6.26a7.11,7.11,0,0,0-.53-2.85v-.14a14.55,14.55,0,0,0,4.32,1.66,4.56,4.56,0,0,0,1.9-.29v7.33l4.62,3.24v-23H399v19.79l4.49,3.18v-23h6.05Zm-54.81,0-2.51-4.27H347.3c-.84-7.93-4.64-11.59-9.23-11.59a5.91,5.91,0,0,0-6.31,5.29,6.43,6.43,0,0,0,1.69,4l2.7-.32a11,11,0,0,1-.09-1.62,3.48,3.48,0,0,1,3.53-3.43h.12c2.81,0,5.34,3.1,5.48,7.7H305.14l2.51,4.27h16.82v8h-.09a9,9,0,0,0-3.07-4,8.24,8.24,0,0,0-3.8-.93,7.07,7.07,0,0,0-7.41,6.73,1.93,1.93,0,0,0,0,.24c0,3.8,5,8.2,9.19,8.2a9.66,9.66,0,0,0,5.34-2.36v4.47l4.59,3.25V280.76a16.06,16.06,0,0,1,6.54-3.92,1.67,1.67,0,0,1,1.5,1.6,26.58,26.58,0,0,1-3.38,8.12l4.26,3.16a18.25,18.25,0,0,0,2.64-8.14c0-4.78-3.31-8.58-6.67-8.58a9.67,9.67,0,0,0-4.89,2.09v-7.61h15.08v19.79l4.49,3.18V267.5Zm-30.25,10.6c-1.26,1.08-6.73,4.41-8.18,4.41-1,0-1.9-1.08-1.9-2.82a5.07,5.07,0,0,1,4.66-4.87,7.62,7.62,0,0,1,5.46,3.28Zm-31.81,12.37v-23h6.11l-2.55-4.27H175.59l2.53,4.27h7.29v7.61c0,.36,0,.63-.25.63-.57,0-1.71-1.47-2.78-1.47a2,2,0,0,0-1.9,1.77,10.76,10.76,0,0,0,2.15,4.72L191,291.85l1.9-1.9a63,63,0,0,1-6.64-7.76,15.81,15.81,0,0,0,3.47-3.6,7.72,7.72,0,0,0,4.62,2.53,13.9,13.9,0,0,0,3.14-.44,10.18,10.18,0,0,0,7.87,4.78,11.83,11.83,0,0,0,6.95-3v4.72l4.56,3.18V267.5h37.31v2.41a5.31,5.31,0,0,0-4.89,5.37c0,2.61,2.11,5.16,6.33,7.36a13.61,13.61,0,0,1-9.39,4.31c-2.42,0-3.09-.75-3.09-1.91,0-1.48,1.53-3,6-3l-1.83-4.54a7.9,7.9,0,0,0-4.41.79,3.14,3.14,0,0,1-.78-.62l-.16-1.91a6.31,6.31,0,0,1-.7.76,1.17,1.17,0,0,1-.09-.45,2.7,2.7,0,0,1,2.93-2.45h.09a13.32,13.32,0,0,1,2.95.31l-2.09-4.13a9.81,9.81,0,0,0-2.15-.27,5.21,5.21,0,0,0-5.43,3.41l-.83-1.41H220.81l2.51,4.26h3.06a5.58,5.58,0,0,0-.85,3.1c0,3.24,4.28,7.46,8.22,7.46a10.8,10.8,0,0,0,5.87-2.58c.8,3.17,5.48,6.69,9.52,6.69,5.84,0,13.66-5.53,13.66-13.09a10.59,10.59,0,0,0-4.13-7v-2.93h19.74v4h-6.62c-4.77,0-6.94,2.74-6.94,5.31,0,3.21,1.71,6.14,6.7,13.32l1.9-1.43c-2.55-3-4.26-6.13-4.26-8.43s1-4.47,4.3-4.47h5.1v11.42l4.5,3.18v-23h5.24v19.79l4.47,3.18ZM237.8,275.79a13.73,13.73,0,0,0,1.67,2.4c-3.27,3.07-6.14,4.61-8.46,4.61-1.18,0-1.91-.46-1.91-1.54a6.32,6.32,0,0,1,3.16-4.84,9.37,9.37,0,0,1,3.92-.63Zm19,5.35A5.73,5.73,0,0,1,254,276.5a3.59,3.59,0,0,1,3.07-3.81c.87,0,1.63.8,1.63,2.84a11.36,11.36,0,0,1-1.9,5.57ZM197.51,267.5h14.83v7a24.76,24.76,0,0,0-3.8-3.65,8.18,8.18,0,0,0-4-.86c-4.68,0-8.08,3-8.21,6.55a10.09,10.09,0,0,1-2.5.44,12.24,12.24,0,0,1-3.8-.52V267.5Zm5.7,14.46a2.49,2.49,0,0,1-2.5-2.48,2.26,2.26,0,0,1,0-.26,4.79,4.79,0,0,1,4.6-5h.08a11.15,11.15,0,0,1,7.1,2.8v.63C210,279.43,205.32,282,203.21,282Zm-51.76-.63h8v6l4.6,3.18v-23h5l-2.51-4.27h-82l2.53,4.27h16.84v8h-.13a8.78,8.78,0,0,0-3.09-4,8.24,8.24,0,0,0-3.8-.93,7,7,0,0,0-7.46,6.59c0,.12,0,.25,0,.38,0,3.8,5,8.2,9.15,8.2a9.4,9.4,0,0,0,5.33-2.36v4.47l4.55,3.25V280.76a16.06,16.06,0,0,1,6.54-3.92,1.73,1.73,0,0,1,1.54,1.6,28.39,28.39,0,0,1-3.38,8.12l4.22,3.16a18.57,18.57,0,0,0,2.66-8.14c0-4.78-3.33-8.58-6.71-8.58a9.6,9.6,0,0,0-4.87,2.09v-7.61h26.82v4.16h-6.6c-4,0-6.24,1.7-6.24,5.47a11.55,11.55,0,0,0,11.37,11.72h0a6.2,6.2,0,0,0,3.22-.65l3.54,7.16,2.34-1.16-4.06-6.82a3.29,3.29,0,0,0,1.91-2.7c0-1.9-4.32-4.83-5.71-4.83a1.61,1.61,0,0,0-1.62,1.31c0,1.49.73,1.79.73,2.51s-1.53,1.62-3.31,1.62a4.84,4.84,0,0,1-4.63-5,4,4,0,0,1,3.41-4.48,3.63,3.63,0,0,1,.57,0h8.65c.52,0,.88-.46.88-1.2V267.5h7.15v9.34h-1.56a1.17,1.17,0,0,0-1.23,1.12V278c0,1.9,4.66,6.64,6,6.64.81,0,1.31-.4,1.31-1.12Zm8-13.76v9.52h-8v-9.52ZM103.93,278.1c-1.24,1.08-6.72,4.41-8.2,4.41-1,0-1.9-1.08-1.9-2.82a5.1,5.1,0,0,1,4.66-4.87A7.71,7.71,0,0,1,104,278.1Zm-45.49,0c-1.25,1.08-6.73,4.41-8.18,4.41-1,0-1.9-1.08-1.9-2.82A5.08,5.08,0,0,1,53,274.82a7.75,7.75,0,0,1,5.46,3.28Z"/><path class="cls-1" d="M105.68,48.76A95.73,95.73,0,1,1,10,144.52v-.07A95.69,95.69,0,0,1,105.68,48.76Zm0,8.57a87.16,87.16,0,1,1-87.13,87.15v0a87.1,87.1,0,0,1,87.09-87.12Z"/><path class="cls-1" d="M331.85,48.76a95.73,95.73,0,1,1-95.67,95.74v-.05A95.73,95.73,0,0,1,331.85,48.76Zm0,8.57a87.16,87.16,0,1,1-87.13,87.15v0a87.12,87.12,0,0,1,87.13-87.12Z"/><path class="cls-1" d="M6.26,139.48c-5.52,2.51-9.28-5.42-3-8.26l33.26-15L246,18.71l19.44-8.43c23.34-8.79,46.26-15.13,66.73-5.35,31.77,16.2,26.88,63.39.27,85.64-4.89,4.09-10.25-2-6.16-6.28,40.71-42.89,15.48-95.15-52-68-4.22,1.72-7.85,3.09-12,5C185.43,56,108.85,92,32.17,127.7Z"/><path class="cls-1" d="M415,139.88c-5.46,2.64-9.25-5.31-3-8.28l165.3-76.44,19.4-8.47c23.34-8.81,45.66-16.2,66-6.47,31.81,16.19,26.92,63.44.27,85.63a4.41,4.41,0,1,1-6.56-5.91l.37-.37c40.43-43.77,15.51-96-51.25-66.83-4.16,1.9-7.87,3.08-12,5-59.75,27-119.47,53.68-178.57,82.13Z"/></svg>